<?xml version="1.0" encoding="UTF-8"?>
<svg id="Layer_1" data-name="Layer 1" xmlns="http://www.w3.org/2000/svg" viewBox="0 0 225 225">
    <path d="M139.81,21.15c-2.13,1.82-11.5,12.95-11.5,13.62,0,.3,4.01,.55,9,.55s10.95,.19,13.37,.49c5.35,.55,5.29,.61,2.19-7.36-2.61-6.87-4.44-8.7-8.64-8.7-2.06,0-3.28,.36-4.43,1.4Z" />
    <path
          d="M101.62,23.89c-3.89,1.95-4.26,2.8-7.72,18.97-.85,4.2-1.7,7.91-1.76,8.27-.12,.43-2.67,2.44-5.71,4.5-18.36,12.59-30.71,31.26-35.15,53.09-1.4,6.94-1.4,24.51,0,30.83,2.19,10.04,5.84,18.55,11.07,25.91,1.52,2.06,2.74,4.07,2.74,4.38s-4.01,.73-8.94,.91c-20.12,.85-35.94,5.54-47.49,14.05-3.89,2.86-8.64,9.12-8.64,11.44,0,1.04,2.5,1.1,74.98,1.1,76.8-.06,78.26-.06,89.51-2.37,19.34-3.89,36.73-14.35,47.19-28.22,9.19-12.16,13.32-25.42,13.32-42.33-.06-23.35-7.91-42.27-24.26-58.44-9.55-9.49-16.85-14.35-28.33-19.03-11.01-4.44-18.91-5.9-32.83-6.2l-10.95-.24-8.7-7.79c-4.8-4.26-9.61-8.27-10.65-8.87-2.43-1.35-5.04-1.35-7.66,.05Zm73.53,27.37c7.49,3.71,5.77,14.35-2.55,15.69-5.29,.91-10.65-5.05-9.06-10.04,.85-2.8,1.7-3.89,4.31-5.47,2.55-1.53,4.44-1.59,7.3-.19Zm-20.86,6.51c1.7,1.95,2.01,2.8,2.01,5.35,0,4.99-3.4,8.34-8.4,8.34-3.46,0-7.36-3.52-7.85-7.05-.43-3.16,1.04-6.45,3.65-8.15,1.52-.97,2.67-1.21,5.24-1.04,2.98,.25,3.59,.48,5.35,2.55Z" />
</svg>