<svg viewBox="0 0 485 200" xmlns="http://www.w3.org/2000/svg"><path fill="#fff" d="M81.7 33.1c-5.6 0-10.1 4.5-10.1 10.1s4.5 10.1 10.1 10.1 10.1-4.5 10.1-10.1-4.5-10.1-10.1-10.1zm0 12.5c-1.4 0-2.5-1.1-2.5-2.5s1.1-2.5 2.5-2.5 2.5 1.1 2.5 2.5-1.1 2.5-2.5 2.5z"/><path fill="#fff" d="M8.2 10.9h58.3s-10.9 3.7-10.9 36.3c0 13.7 9.3 22.4 12.7 22.4 5.9 0 9-4.7 9-4.7s-.3 13.4 1.9 25.8c2.2 12.4 9 20.5 9 20.5s1.9-6.8 7.8-6.8h.6c5.9 0 7.8 6.8 7.8 6.8s6.8-8.1 9-20.5 1.9-25.8 1.9-25.8 3.1 4.7 9 4.7c3.4 0 12.7-8.7 12.7-22.4 0-32.6-10.9-36.5-10.9-36.5l107.9-.1c-5.4 4.9-9.1 13.9-9.1 24.3 0 14.9 7.4 27.1 16.8 28.1 0 0 .4 2.8.2 4.2-.2 1.4-.7 2-1.4 3.4-.8 1.4-1.4 3.2-1.2 5.1.2 1.9 1.5 2 1.5.5 0-1.6.1-2.7 1.2-4.4 1.1-1.7 1.6-1.6 2 .4.4 2 .8 3.4 1.5 4.7.7 1.3 2.4.8 1.7-.6-.8-1.4-1.1-2.9-1.4-4.1-.4-1.2-.5-1.7-1.1-2.7-.6-1.1-.9-1.2-1-2-.1-.8.3-4.4.3-4.4 9.5-.8 17.1-13.1 17.1-28.1 0-10.4-3.6-19.5-9-24.3h65.2v159.5h-60.8c5.3-3.7 9.3-9.5 11.3-16.4v-.2c1.4.4 3.2 1 5.2 1.9 4.5 2 5.7 3 7 4 1.3 1 2-.4 1.2-1.2-.9-.7-2.5-2-7-4-2.4-1.1-4.5-1.8-6-2.2.4-1.5.6-2.9.8-4.4v-.2c1.9 0 4.7 0 8.5.1 7.7.3 12.6 2.1 13.7 2.5 1.1.4 1.6-1.1.6-1.4s-6-2.2-13.7-2.5c-4.2-.2-7-.1-8.9-.1h-.2c0-.7.1-1.5.1-2.2 0-.7 0-1.4-.1-2.1v-.1c1.2-.5 3-1.2 5.6-2 6.7-2.2 9.9-1.3 11.2-1.2 1.3.2 1.2-1.5.2-1.7-1-.2-4.5-1-11.2 1.2-2.7.9-4.5 1.6-5.8 2.1h-.1c-.6-5.4-2.4-10.3-5-14.4-1.3-2.1-.6-3.7-.3-4.7s1.8-4 3.1-8.2c1.4-4.2 1.2-7.3.2-8.1-1-.8-3.4-.8-8.5 2.8-5.1 3.6-6.4 5-7.3 5.8-.9.8-2.2.7-3 .6-1.9-.4-3.9-.8-6-.8s-4.1.3-6 .8c-.8.2-2.1.2-3-.6-.9-.8-2.2-2.2-7.3-5.8s-7.5-3.7-8.5-2.8c-1 .8-1.2 4 .2 8.1 1.4 4.2 2.8 7.2 3.1 8.2s1.1 2.5-.3 4.7c-2.6 4.2-4.4 9.1-5 14.4h-.1c-1.2-.5-3-1.2-5.8-2.1-6.7-2.2-10.1-1.4-11.2-1.2-1 .2-1.1 1.8.2 1.7 1.3-.2 4.5-1 11.2 1.2 2.5.8 4.3 1.5 5.6 2v.1c0 .7-.1 1.4-.1 2.1 0 .8 0 1.5.1 2.2h-.2c-1.9-.1-4.7-.1-8.9.1-7.7.3-12.8 2.2-13.7 2.5-.9.3-.4 1.7.6 1.4 1.1-.4 6-2.2 13.7-2.5 3.8-.2 6.7-.2 8.5-.1v.2c.2 1.5.4 2.9.8 4.4-1.5.4-3.6 1.1-6 2.2-4.5 2-6.1 3.3-7 4-.9.7-.1 2.1 1.2 1.2 1.3-1 2.5-2 7-4 2-.9 3.8-1.5 5.2-1.9v.2c2 6.9 6.1 12.6 11.3 16.4H167V52.9l-45.8 117.2H70.9L8.2 10.9z"/><path fill="#fff" d="M233 46.7c1.3.9 2.5-.5 1.9-2.3-.6-1.8-1.5-4.4-1.9-7.4-.4-3-1.3-3.8-2.5-4-1.2-.2-2.9 1-3.4 4.7-.4 2.9 1.1 5.2 2.5 6.5 1.4 1.4 3.4 2.5 3.4 2.5zM239.9 60.3c2.2 0 1.1-3.7-1.7-3.7-2.6 0-1.7 3.7 1.7 3.7zM256.1 44.3c1.4-1.4 2.9-3.6 2.5-6.5-.5-3.8-2.2-5-3.4-4.7-1.2.2-2.1 1-2.5 4-.4 3-1.3 5.6-1.9 7.4-.6 1.8.6 3.2 1.9 2.3 0-.1 2-1.2 3.4-2.5zM247.5 56.6c-2.9 0-3.9 3.7-1.7 3.7 3.4 0 4.3-3.7 1.7-3.7z"/><circle fill="#fff" cx="110.2" cy="43.2" r="3.5"/><path fill="#fff" d="M412.4 11.1c-17.5-3.6-40.9-2.5-58.3 6.7-17.5 9.2-29.5 27.4-29.5 44.1 0 16.7 4.6 28.4 15.3 37.6 10.7 9.2 27.6 10.7 35.7 12.1 8.1 1.3 12.7 3.5 13.8 6.9 1.2 3.5 0 6.1 0 6.1l5.8 5.9-8.8-3.1s-5.9 1.9-12.9 1.9c-14.2 0-36.5-15.9-36.5-15.9l-18.2 43.7s16.9 9 31.8 12.7c12.7 3.1 51.8 8.6 72.3-6.9s27-28.4 27-44.3c0-15.9-5.9-32-20.3-39.7-14.4-7.7-28.2-9.8-31.7-10.4-3.5-.6-14.8-2.3-14.8-8.2 0-5.9 7.3-7.1 8.8-7.5 1.5-.4 1.9-1.9 1.7-3.6-.2-1.7-.4-2.1-1.5-7.9s-1.2-8.2.4-8.4c1.5-.2 2.5.4 4.2 5.2 1.7 4.8 2.5 10 2.5 10s2.1-3.8 3.8-9.2c1.7-5.4 3.8-7.1 5-6.9s1.7 1 1.2 8.1c-.6 7.1-4.6 12.9-4.6 12.9l5.9 2.3c5.9 2.3 18 9 18 9L445 23.6s-15.1-8.9-32.6-12.5z"/><circle fill="#fff" cx="395.9" cy="55.2" r="1.9"/><circle fill="#fff" cx="383.8" cy="119.3" r="2.1"/></svg>