<svg
		 x='0px'
		 y='0px'
		 viewBox='0 0 485 200'
		 xmlns='http://www.w3.org/2000/svg'
		 version='1.1'>
	<path fill="#ffffff" d="M81.7,33.1c-5.6,0-10.1,4.5-10.1,10.1c0,5.6,4.5,10.1,10.1,10.1c5.6,0,10.1-4.5,10.1-10.1
				C91.8,37.6,87.3,33.1,81.7,33.1z M81.7,45.6c-1.4,0-2.5-1.1-2.5-2.5c0-1.4,1.1-2.5,2.5-2.5c1.4,0,2.5,1.1,2.5,2.5
				C84.2,44.5,83.1,45.6,81.7,45.6z" />
	<path fill="#ffffff" d="M8.2,10.9h58.3c0,0-10.9,3.7-10.9,36.3c0,13.7,9.3,22.4,12.7,22.4c5.9,0,9-4.7,9-4.7S77,78.3,79.2,90.7
		c2.2,12.4,9,20.5,9,20.5s1.9-6.8,7.8-6.8h0.6c5.9,0,7.8,6.8,7.8,6.8s6.8-8.1,9-20.5c2.2-12.4,1.9-25.8,1.9-25.8s3.1,4.7,9,4.7
		c3.4,0,12.7-8.7,12.7-22.4c0-32.6-10.9-36.5-10.9-36.5L234,10.6c-5.4,4.9-9.1,13.9-9.1,24.3c0,14.9,7.4,27.1,16.8,28.1
		c0,0,0.4,2.8,0.2,4.2c-0.2,1.4-0.7,2-1.4,3.4c-0.8,1.4-1.4,3.2-1.2,5.1c0.2,1.9,1.5,2,1.5,0.5c0-1.6,0.1-2.7,1.2-4.4
		c1.1-1.7,1.6-1.6,2,0.4c0.4,2,0.8,3.4,1.5,4.7c0.7,1.3,2.4,0.8,1.7-0.6c-0.8-1.4-1.1-2.9-1.4-4.1c-0.4-1.2-0.5-1.7-1.1-2.7
		c-0.6-1.1-0.9-1.2-1-2c-0.1-0.8,0.3-4.4,0.3-4.4c9.5-0.8,17.1-13.1,17.1-28.1c0-10.4-3.6-19.5-9-24.3h65.2v159.5l-60.8,0
		c5.3-3.7,9.3-9.5,11.3-16.4l0-0.2c1.4,0.4,3.2,1,5.2,1.9c4.5,2,5.7,3,7,4c1.3,1,2-0.4,1.2-1.2c-0.9-0.7-2.5-2-7-4
		c-2.4-1.1-4.5-1.8-6-2.2l0,0c0.4-1.5,0.6-2.9,0.8-4.4l0-0.2c1.9,0,4.7,0,8.5,0.1c7.7,0.3,12.6,2.1,13.7,2.5
		c1.1,0.4,1.6-1.1,0.6-1.4s-6-2.2-13.7-2.5c-4.2-0.2-7-0.1-8.9-0.1l-0.2,0c0-0.7,0.1-1.5,0.1-2.2c0-0.7,0-1.4-0.1-2.1l0-0.1
		c1.2-0.5,3-1.2,5.6-2c6.7-2.2,9.9-1.3,11.2-1.2c1.3,0.2,1.2-1.5,0.2-1.7c-1-0.2-4.5-1-11.2,1.2c-2.7,0.9-4.5,1.6-5.8,2.1l-0.1,0
		c-0.6-5.4-2.4-10.3-5-14.4c-1.3-2.1-0.6-3.7-0.3-4.7s1.8-4,3.1-8.2c1.4-4.2,1.2-7.3,0.2-8.1c-1-0.8-3.4-0.8-8.5,2.8
		c-5.1,3.6-6.4,5-7.3,5.8c-0.9,0.8-2.2,0.7-3,0.6c-1.9-0.4-3.9-0.8-6-0.8h0c-2.1,0-4.1,0.3-6,0.8c-0.8,0.2-2.1,0.2-3-0.6
		c-0.9-0.8-2.2-2.2-7.3-5.8s-7.5-3.7-8.5-2.8c-1,0.8-1.2,4,0.2,8.1c1.4,4.2,2.8,7.2,3.1,8.2s1.1,2.5-0.3,4.7
		c-2.6,4.2-4.4,9.1-5,14.4l-0.1,0c-1.2-0.5-3-1.2-5.8-2.1c-6.7-2.2-10.1-1.4-11.2-1.2c-1,0.2-1.1,1.8,0.2,1.7
		c1.3-0.2,4.5-1,11.2,1.2c2.5,0.8,4.3,1.5,5.6,2l0,0.1c0,0.7-0.1,1.4-0.1,2.1c0,0.8,0,1.5,0.1,2.2l-0.2,0c-1.9-0.1-4.7-0.1-8.9,0.1
		c-7.7,0.3-12.8,2.2-13.7,2.5c-0.9,0.3-0.4,1.7,0.6,1.4c1.1-0.4,6-2.2,13.7-2.5c3.8-0.2,6.7-0.2,8.5-0.1l0,0.2
		c0.2,1.5,0.4,2.9,0.8,4.4l0,0c-1.5,0.4-3.6,1.1-6,2.2c-4.5,2-6.1,3.3-7,4c-0.9,0.7-0.1,2.1,1.2,1.2c1.3-1,2.5-2,7-4
		c2-0.9,3.8-1.5,5.2-1.9l0,0.2c2,6.9,6.1,12.6,11.3,16.4h-60.7V52.9l-45.8,117.2H70.9L8.2,10.9z" />
	<path fill="#ffffff" d="M233,46.7c1.3,0.9,2.5-0.5,1.9-2.3c-0.6-1.8-1.5-4.4-1.9-7.4c-0.4-3-1.3-3.8-2.5-4c-1.2-0.2-2.9,1-3.4,4.7
		c-0.4,2.9,1.1,5.2,2.5,6.5C231,45.6,233,46.7,233,46.7z" />
	<path fill="#ffffff" d="M239.9,60.3c2.2,0,1.1-3.7-1.7-3.7C235.6,56.6,236.5,60.3,239.9,60.3z" />
	<path fill="#ffffff" d="M256.1,44.3c1.4-1.4,2.9-3.6,2.5-6.5c-0.5-3.8-2.2-5-3.4-4.7c-1.2,0.2-2.1,1-2.5,4c-0.4,3-1.3,5.6-1.9,7.4
		c-0.6,1.8,0.6,3.2,1.9,2.3C252.7,46.7,254.7,45.6,256.1,44.3z" />
	<path fill="#ffffff" d="M247.5,56.6c-2.9,0-3.9,3.7-1.7,3.7C249.2,60.3,250.1,56.6,247.5,56.6z" />
	<circle fill="#ffffff" cx="110.2" cy="43.2" r="3.5" />
	<path fill="#ffffff" d="M412.4,11.1c-17.5-3.6-40.9-2.5-58.3,6.7c-17.5,9.2-29.5,27.4-29.5,44.1c0,16.7,4.6,28.4,15.3,37.6
		c10.7,9.2,27.6,10.7,35.7,12.1c8.1,1.3,12.7,3.5,13.8,6.9c1.2,3.5,0,6.1,0,6.1l5.8,5.9l-8.8-3.1c0,0-5.9,1.9-12.9,1.9
		c-14.2,0-36.5-15.9-36.5-15.9l-18.2,43.7c0,0,16.9,9,31.8,12.7c12.7,3.1,51.8,8.6,72.3-6.9c20.5-15.5,27-28.4,27-44.3
		c0-15.9-5.9-32-20.3-39.7c-14.4-7.7-28.2-9.8-31.7-10.4c-3.5-0.6-14.8-2.3-14.8-8.2c0-5.9,7.3-7.1,8.8-7.5c1.5-0.4,1.9-1.9,1.7-3.6
		c-0.2-1.7-0.4-2.1-1.5-7.9s-1.2-8.2,0.4-8.4c1.5-0.2,2.5,0.4,4.2,5.2c1.7,4.8,2.5,10,2.5,10s2.1-3.8,3.8-9.2c1.7-5.4,3.8-7.1,5-6.9
		s1.7,1,1.2,8.1c-0.6,7.1-4.6,12.9-4.6,12.9s0,0,5.9,2.3c5.9,2.3,18,9,18,9L445,23.6C445,23.6,429.9,14.7,412.4,11.1z" />
	<circle fill="#ffffff" cx="395.9" cy="55.2" r="1.9" />
	<circle fill="#ffffff" cx="383.8" cy="119.3" r="2.1" />
</svg>